<?xml version="1.0" encoding="utf-8"?>
<!-- Generator: Adobe Illustrator 28.0.0, SVG Export Plug-In . SVG Version: 6.00 Build 0)  -->
<svg version="1.1" id="Слой_1" xmlns="http://www.w3.org/2000/svg" xmlns:xlink="http://www.w3.org/1999/xlink" x="0px" y="0px"
	 viewBox="0 0 1920 1080" style="enable-background:new 0 0 1920 1080;" xml:space="preserve">
<style type="text/css">
	.st0{fill:#E63130;}
	.st1{font-family:'Unbounded-Light';}
	.st2{font-size:206.6277px;}
	.st3{font-family:'Unbounded-Medium';}
	.st4{font-size:101.6232px;}
	.st5{fill:none;}
	.st6{fill:#020203;}
</style>
<text id="playback_rental" transform="matrix(1.0182 0 0 1 730.5195 695.1572)"><tspan x="0" y="0" class="st0 st1 st2">ren</tspan><tspan x="495.9" y="0" class="st1 st2">tal</tspan></text>
<text id="playback" transform="matrix(1.0422 0 0 1 742.6133 525.4316)" class="st3 st4">playback</text>
<rect x="1056" y="797.6" class="st5" width="0" height="5.3"/>
<circle class="st0" cx="687.1" cy="617.4" r="23.1"/>
<g>
	<g id="Слой_1-2">
		<path class="st6" d="M615.2,789.4c-2.7,0.2-5.3-0.8-7.2-2.5L421.1,634.3c-4.7-3.7-5.3-10.5-1.6-15.2c0.4-0.6,1-1,1.6-1.6
			L608,464.9c3.7-2.7,8.4-3.1,12.5-1.4c4.1,1.6,6.8,5.9,6.6,10.3v304c0,4.5-2.5,8.4-6.6,10.3C618.7,788.8,616.9,789.2,615.2,789.4z
			 M446.6,625.3l157.2,129V496.9L446.6,625.3z"/>
		<path class="st6" d="M615.2,789.4c-2.7,0.2-5.3-0.8-7.2-2.5L494.4,694c-4.7-3.7-5.3-10.5-1.6-15c0.4-0.6,1-1.2,1.6-1.6l113-92.5
			c3.7-2.7,8.4-3.1,12.5-1.4c4.1,1.6,6.8,5.9,6.6,10.3v184c0,4.5-2.5,8.4-6.6,10.3C618.3,789,616.7,789.4,615.2,789.4z M520,685.4
			l83.9,68.7V616.9L520,685.4z"/>
		<path class="st6" d="M312,656.7c-1.6,0-3.1-0.4-4.7-1.4c-4.1-1.8-6.6-5.9-6.6-10.3V340.5c0-4.5,2.5-8.4,6.6-10.3
			c4.1-1.8,9-1.4,12.5,1.4L506.7,484c4.7,3.7,5.3,10.5,1.6,15.2c-0.4,0.6-1,1.2-1.6,1.6L319.8,654
			C317.7,655.9,314.7,656.9,312,656.7z M323.9,364.3v257.1l157.2-129L323.9,364.3z"/>
		<path class="st6" d="M312,536.7c-1.6,0-3.1-0.4-4.7-1.4c-4.1-1.8-6.6-5.9-6.6-10.3V340.5c0-4.5,2.5-8.4,6.6-10.3
			c4.1-1.8,9-1.4,12.5,1.4l113,93.1c4.7,3.7,5.3,10.5,1.6,15.2c-0.4,0.6-1,1-1.6,1.6l-113,92.9C317.7,535.9,314.7,536.9,312,536.7z
			 M323.9,364.3v137.2l83.9-68.7L323.9,364.3z"/>
	</g>
</g>
</svg>
